<svg width="106" height="40" viewBox="0 0 106 40" fill="none" xmlns="http://www.w3.org/2000/svg">
<path d="M8.81212 16.0434V23.9679C8.81212 24.4321 9.3442 24.7038 9.71778 24.4207L15.0046 20.4585C15.3102 20.2321 15.3102 19.7792 15.0046 19.5528L9.71778 15.5906C9.63368 15.5275 9.53369 15.4891 9.42899 15.4796C9.3243 15.4702 9.21904 15.4901 9.12502 15.5371C9.031 15.5841 8.95192 15.6564 8.89666 15.7458C8.84139 15.8352 8.81212 15.9383 8.81212 16.0434ZM9.94419 10.0773C9.94419 9.35282 9.27627 8.7981 8.57438 8.95659C7.30646 9.25093 6.10646 9.74905 5.04231 10.4283C4.44231 10.8132 4.35174 11.6736 4.86118 12.183C5.22344 12.5453 5.8008 12.6358 6.23099 12.3641C7.10268 11.8094 8.06495 11.4019 9.10646 11.1755C9.60457 11.0623 9.94419 10.5981 9.94419 10.0773ZM3.26495 13.7906C2.74419 13.2811 1.89514 13.3604 1.51023 13.9717C0.830986 15.0358 0.332873 16.2358 0.038533 17.5038C-0.119958 18.2057 0.423439 18.8736 1.14797 18.8736C1.6574 18.8736 2.13287 18.534 2.23476 18.0358C2.46117 17.0057 2.88004 16.0321 3.42344 15.1717C3.71778 14.7302 3.62721 14.1528 3.26495 13.7906ZM1.14797 21.1377C0.423439 21.1377 -0.131278 21.8057 0.0272123 22.5075C0.321552 23.7755 0.819665 24.9641 1.49891 26.0396C1.88382 26.6509 2.74419 26.7302 3.25363 26.2207C3.61589 25.8585 3.70646 25.2811 3.42344 24.8509C2.86872 23.9906 2.46117 23.0283 2.23476 21.9868C2.13287 21.4774 1.66872 21.1377 1.14797 21.1377ZM5.04231 29.5717C6.11778 30.2509 7.30646 30.7491 8.57438 31.0434C9.27627 31.2019 9.94419 30.6472 9.94419 29.934C9.94419 29.4245 9.60457 28.949 9.10646 28.8472C8.0903 28.6192 7.12127 28.217 6.24231 27.6585C6.02764 27.5277 5.77465 27.4743 5.52543 27.5072C5.27621 27.5402 5.04578 27.6575 4.8725 27.8396C4.7503 27.9549 4.65613 28.0967 4.5972 28.254C4.53828 28.4114 4.51617 28.5801 4.53256 28.7473C4.54895 28.9145 4.60342 29.0757 4.69178 29.2186C4.78014 29.3615 4.90004 29.4823 5.04231 29.5717ZM22.397 20.0057C22.397 25.3604 18.6612 29.866 13.6461 31.0321C12.9442 31.2019 12.265 30.6472 12.265 29.9226C12.265 29.4019 12.6159 28.9491 13.114 28.8245C17.1329 27.8962 20.1329 24.2962 20.1329 20.0057C20.1329 15.7151 17.1329 12.1151 13.114 11.1868C12.6159 11.0736 12.265 10.6094 12.265 10.0887C12.265 9.36414 12.9442 8.80942 13.6461 8.97924C18.6612 10.1453 22.397 14.6509 22.397 20.0057Z" fill="#1EA5FC"/>
<path d="M52.957 8.664V31H48.477V16.472L42.493 31H39.101L33.085 16.472V31H28.605V8.664H33.693L40.797 25.272L47.901 8.664H52.957Z" fill="#5A4AF4"/>
<path d="M70.5382 8.664V12.28H61.2262V18.008H68.3622V21.56H61.2262V31H56.7462V8.664H70.5382ZM77.555 7.32V31H73.075V7.32H77.555ZM83.6132 11.16C82.8239 11.16 82.1626 10.9147 81.6292 10.424C81.1172 9.912 80.8612 9.28267 80.8612 8.536C80.8612 7.78933 81.1172 7.17067 81.6292 6.68C82.1626 6.168 82.8239 5.912 83.6132 5.912C84.4026 5.912 85.0532 6.168 85.5652 6.68C86.0986 7.17067 86.3652 7.78933 86.3652 8.536C86.3652 9.28267 86.0986 9.912 85.5652 10.424C85.0532 10.9147 84.4026 11.16 83.6132 11.16ZM85.8212 13.272V31H81.3412V13.272H85.8212ZM99.3995 31L95.7515 25.496L92.5195 31H87.7195L93.5115 22.104L87.6555 13.272H92.7115L96.3275 18.744L99.5915 13.272H104.391L98.5675 22.104L104.455 31H99.3995Z" fill="#1EA5FC"/>
</svg>
