<svg width="23" height="24" viewBox="0 0 23 24" fill="none" xmlns="http://www.w3.org/2000/svg">
<path d="M8.81212 8.04339V15.9679C8.81212 16.4321 9.3442 16.7038 9.71778 16.4207L15.0046 12.4585C15.3102 12.2321 15.3102 11.7792 15.0046 11.5528L9.71778 7.59056C9.63368 7.52749 9.53369 7.48908 9.42899 7.47964C9.3243 7.4702 9.21904 7.4901 9.12502 7.53711C9.031 7.58412 8.95192 7.65638 8.89666 7.7458C8.84139 7.83522 8.81212 7.93827 8.81212 8.04339ZM9.9442 2.07735C9.9442 1.35282 9.27627 0.798104 8.57438 0.956595C7.30646 1.25093 6.10646 1.74905 5.04231 2.42829C4.44231 2.8132 4.35174 3.67358 4.86118 4.18301C5.22344 4.54527 5.8008 4.63584 6.23099 4.36414C7.10269 3.80943 8.06495 3.40188 9.10646 3.17546C9.60457 3.06226 9.9442 2.5981 9.9442 2.07735V2.07735ZM3.26495 5.79056C2.74419 5.28112 1.89514 5.36037 1.51023 5.97169C0.830986 7.03584 0.332873 8.23584 0.038533 9.50377C-0.119958 10.2057 0.423439 10.8736 1.14797 10.8736C1.6574 10.8736 2.13287 10.534 2.23476 10.0358C2.46117 9.00565 2.88004 8.03207 3.42344 7.17169C3.71778 6.73018 3.62721 6.15282 3.26495 5.79056V5.79056ZM1.14797 13.1377C0.423439 13.1377 -0.131278 13.8057 0.0272123 14.5075C0.321552 15.7755 0.819665 16.9641 1.49891 18.0396C1.88382 18.6509 2.74419 18.7302 3.25363 18.2207C3.61589 17.8585 3.70646 17.2811 3.42344 16.8509C2.86872 15.9906 2.46117 15.0283 2.23476 13.9868C2.13287 13.4774 1.66872 13.1377 1.14797 13.1377V13.1377ZM5.04231 21.5717C6.11778 22.2509 7.30646 22.7491 8.57438 23.0434C9.27627 23.2019 9.9442 22.6472 9.9442 21.934C9.9442 21.4245 9.60457 20.949 9.10646 20.8472C8.0903 20.6192 7.12127 20.217 6.24231 19.6585C6.02764 19.5277 5.77465 19.4743 5.52543 19.5072C5.27621 19.5402 5.04578 19.6575 4.8725 19.8396C4.7503 19.9549 4.65613 20.0967 4.5972 20.254C4.53828 20.4114 4.51617 20.5801 4.53256 20.7473C4.54895 20.9145 4.60342 21.0757 4.69178 21.2186C4.78014 21.3615 4.90004 21.4823 5.04231 21.5717V21.5717ZM22.397 12.0057C22.397 17.3604 18.6612 21.866 13.6461 23.0321C12.9442 23.2019 12.265 22.6472 12.265 21.9226C12.265 21.4019 12.6159 20.9491 13.114 20.8245C17.1329 19.8962 20.1329 16.2962 20.1329 12.0057C20.1329 7.71509 17.1329 4.11509 13.114 3.18678C12.6159 3.07358 12.265 2.60943 12.265 2.08867C12.265 1.36414 12.9442 0.809425 13.6461 0.979236C18.6612 2.14527 22.397 6.65094 22.397 12.0057Z" fill="#1EA5FC"/>
</svg>
