<svg width="16" height="16" viewBox="0 0 16 16" fill="none" xmlns="http://www.w3.org/2000/svg">
<path d="M5.17139 5.17157L10.8282 10.8284" stroke="#8E95A9" stroke-linecap="round" stroke-linejoin="round"/>
<path d="M5.17139 10.8284L10.8283 5.17157" stroke="#8E95A9" stroke-linecap="round" stroke-linejoin="round"/>
<path d="M8 15C4.13401 15 1 11.866 1 8H-1C-1 12.9706 3.02944 17 8 17V15ZM15 8C15 11.866 11.866 15 8 15V17C12.9706 17 17 12.9706 17 8H15ZM8 1C11.866 1 15 4.13401 15 8H17C17 3.02944 12.9706 -1 8 -1V1ZM8 -1C3.02944 -1 -1 3.02944 -1 8H1C1 4.13401 4.13401 1 8 1V-1Z" fill="#475069"/>
</svg>
