<svg width="16" height="16" viewBox="0 0 16 16" fill="none" xmlns="http://www.w3.org/2000/svg">
<path d="M9.38016 3.54666C10.8402 4 12.0002 5.16 12.4535 6.62C12.5802 7.04 12.9602 7.33333 13.3935 7.33333H13.4202C14.0868 7.33333 14.5668 6.69333 14.3735 6.06C13.7268 3.94 12.0535 2.26666 9.9335 1.62C9.30683 1.42666 8.66683 1.90666 8.66683 2.57333V2.6C8.66683 3.04 8.96016 3.42 9.38016 3.54666ZM12.4535 9.38C12.0002 10.8467 10.8402 12 9.38016 12.4533C8.96016 12.58 8.66683 12.96 8.66683 13.3933V13.42C8.66683 14.0867 9.30683 14.5667 9.94016 14.3733C12.0602 13.7267 13.7335 12.0533 14.3802 9.93333C14.5735 9.3 14.0935 8.66 13.4335 8.66H13.4002C12.9602 8.66666 12.5802 8.96 12.4535 9.38ZM7.3335 13.4067C7.3335 12.96 7.0335 12.58 6.60683 12.4467C4.7135 11.8533 3.3335 10.0867 3.3335 8C3.3335 5.91333 4.7135 4.14666 6.60683 3.55333C7.0335 3.42 7.3335 3.04 7.3335 2.59333V2.58666C7.3335 1.92 6.68683 1.42666 6.04683 1.62666C3.32016 2.46 1.3335 5 1.3335 8C1.3335 11 3.32016 13.54 6.04683 14.3733C6.68683 14.5733 7.3335 14.08 7.3335 13.4067Z" fill="#8E95A9"/>
</svg>
